<?xml version="1.0" encoding="UTF-8"?>
<svg version="1.1" xmlns="http://www.w3.org/2000/svg" width="1198" height="469">
<path d="M0 0 C395.34 0 790.68 0 1198 0 C1198 154.77 1198 309.54 1198 469 C802.66 469 407.32 469 0 469 C0 314.23 0 159.46 0 0 Z " fill="#FEFEFE" transform="translate(0,0)"/>
<path d="M0 0 C1.32312758 -0.00785502 1.32312758 -0.00785502 2.67298502 -0.01586872 C5.62289207 -0.03084652 8.57262531 -0.0315734 11.52256775 -0.03224182 C13.64026684 -0.03986498 15.75796317 -0.04829275 17.87565613 -0.0574646 C23.62599566 -0.07940545 29.37628201 -0.08820838 35.12665868 -0.09329104 C38.72256235 -0.09693616 42.31845214 -0.10317715 45.91435051 -0.11029243 C58.46914658 -0.13478888 71.02390135 -0.14783853 83.57872009 -0.15138245 C95.26436308 -0.15501424 106.94974286 -0.1848838 118.63530546 -0.22678703 C128.67971697 -0.26153689 138.72404148 -0.27693173 148.76851267 -0.27762848 C154.76217785 -0.27841991 160.75557508 -0.28709683 166.74917793 -0.31562614 C172.3922835 -0.34188583 178.03490054 -0.34396766 183.67803955 -0.3279705 C185.74150601 -0.32616211 187.80500106 -0.33279123 189.8684063 -0.34878922 C205.29961061 -0.46107037 217.52813936 0.65008206 229.10435486 12.02024841 C239.32782278 23.40816538 238.57162024 37.47256151 238.54771423 51.84764099 C238.55506143 53.93637545 238.56364954 56.02510585 238.57337952 58.11383057 C238.5955361 63.76685972 238.59852911 69.41974285 238.596632 75.07280946 C238.59651203 79.80167859 238.60508727 84.53051709 238.61340952 89.25937766 C238.63262269 100.42130667 238.63553507 111.58316091 238.62876892 122.74510193 C238.62213019 134.23770993 238.64499079 145.72999683 238.68208265 157.22253972 C238.71282921 167.10993028 238.72413428 176.9972178 238.72024584 186.88465518 C238.71818342 192.78099829 238.72357938 198.67709146 238.74813843 204.57338905 C238.7704847 210.1213584 238.76846205 215.66880748 238.74821091 221.21677971 C238.74481477 223.24476658 238.74982922 225.27278901 238.76419449 227.30072784 C238.86017459 241.86295055 238.04711209 254.35993889 227.30357361 265.40696716 C223.87129044 268.35244536 220.23624463 270.41959795 216.12779236 272.27415466 C215.11027987 272.78295638 214.09276739 273.2917581 213.0444212 273.81597805 C208.72048091 275.65266895 204.73691381 275.70162819 200.09063721 275.67529297 C199.20290861 275.68208964 198.31518001 275.68888631 197.40055054 275.69588894 C194.43752182 275.71481988 191.47490792 275.71242673 188.51182556 275.70994568 C186.38250194 275.71892588 184.25318319 275.72913473 182.12387085 275.74047852 C176.34677821 275.76695894 170.56981891 275.77401125 164.79267144 275.77592587 C161.18017905 275.77805996 157.56772043 275.78446787 153.95523643 275.79241753 C141.34321825 275.82016668 128.73129513 275.83242385 116.11924744 275.83006287 C104.37840568 275.82826167 92.63797796 275.85989716 80.89724094 275.90729386 C70.8052563 275.9465771 60.71340665 275.96261213 50.62134618 275.96069664 C44.59918515 275.95993322 38.577392 275.96840146 32.55530739 276.00023079 C26.88748973 276.02936993 21.22038914 276.02944697 15.55254555 276.00768089 C13.47898303 276.00455498 11.40537512 276.01156303 9.33189011 276.02976227 C-4.72158599 276.1450661 -15.58644109 275.04149455 -26.34877014 264.96165466 C-34.00961766 256.4757928 -37.34433399 247.40373635 -37.2598877 236.05895996 C-37.26527323 235.17627849 -37.27065877 234.29359701 -37.27620751 233.38416761 C-37.29042268 230.45029741 -37.28339935 227.5168825 -37.27626038 224.58299255 C-37.28196729 222.46983479 -37.28893279 220.35668012 -37.29705811 218.24353027 C-37.31496854 212.52038918 -37.31382512 206.7974016 -37.30811572 201.07424092 C-37.30502098 196.29046385 -37.31111948 191.50671614 -37.31715447 186.72294325 C-37.33119101 175.43505713 -37.32964548 164.14724672 -37.31825256 152.85935974 C-37.30677064 141.22644949 -37.32085039 129.59376976 -37.34764904 117.96088988 C-37.36982141 107.9606184 -37.37643998 97.96041921 -37.37057263 87.96012491 C-37.36720575 81.99292284 -37.36960051 76.02586854 -37.38682365 70.05868721 C-37.40231521 64.4467743 -37.39831243 58.83520239 -37.37951851 53.22330284 C-37.37583886 51.16826059 -37.3789228 49.11319295 -37.3894043 47.05817413 C-37.4830287 27.17861023 -37.4830287 27.17861023 -32.87220764 19.27415466 C-32.06396545 17.81622498 -32.06396545 17.81622498 -31.23939514 16.32884216 C-30.50076233 15.24989685 -30.50076233 15.24989685 -29.74720764 14.14915466 C-29.24962952 13.40407654 -28.75205139 12.65899841 -28.23939514 11.89134216 C-27.56263733 11.09083435 -27.56263733 11.09083435 -26.87220764 10.27415466 C-26.21220764 10.27415466 -25.55220764 10.27415466 -24.87220764 10.27415466 C-24.87220764 9.61415466 -24.87220764 8.95415466 -24.87220764 8.27415466 C-22.89564514 6.83665466 -22.89564514 6.83665466 -20.24720764 5.27415466 C-19.38869202 4.75852966 -18.53017639 4.24290466 -17.64564514 3.71165466 C-11.66564323 0.61216072 -6.60314377 -0.0194955 0 0 Z " fill="#023467" transform="translate(74.87220764160156,92.72584533691406)"/>
<path d="M0 0 C1.30852432 -0.01022186 2.61704865 -0.02044373 3.96522522 -0.03097534 C7.5316153 -0.05759545 11.09757943 -0.0589307 14.66404939 -0.05384874 C17.65325388 -0.05169787 20.64237419 -0.06150532 23.6315605 -0.07105958 C30.69096211 -0.09319564 37.75015085 -0.09415618 44.80957031 -0.08203125 C52.06422589 -0.06996146 59.31810473 -0.09455969 66.57262784 -0.13717139 C72.82607353 -0.17253658 79.07927348 -0.18438518 85.33281535 -0.1778959 C89.05676118 -0.17429011 92.78015313 -0.1793392 96.50400734 -0.20732498 C100.66333105 -0.23741773 104.82110015 -0.21842816 108.98046875 -0.1953125 C110.19488647 -0.21059998 111.4093042 -0.22588745 112.66052246 -0.24163818 C121.79213202 -0.13003136 129.5190535 2.2023376 136.61321735 8.1726284 C144.1089257 16.23168864 145.27187611 25.00973733 145.18603516 35.65307617 C145.19413963 37.58160934 145.19413963 37.58160934 145.20240784 39.54910278 C145.21628258 43.05123592 145.20525031 46.55287338 145.18869662 50.05497861 C145.17476753 53.73342786 145.18131499 57.41185061 145.18482971 61.09031677 C145.18752533 67.26447465 145.17411122 73.4384374 145.15087891 79.61254883 C145.12426137 86.73529399 145.12252819 93.85771334 145.13426727 100.98049122 C145.14507158 107.85388234 145.13883799 114.7271564 145.12471199 121.60053825 C145.11897632 124.51622241 145.11901567 127.43182023 145.12377739 130.34750557 C145.12946555 134.42349909 145.11016674 138.49901194 145.08837891 142.57495117 C145.09513138 144.37607109 145.09513138 144.37607109 145.10202026 146.21357727 C145.04417827 152.73716563 144.42410406 157.61256078 141.68432617 163.54931641 C140.87995117 165.34369141 140.87995117 165.34369141 140.05932617 167.17431641 C136.22683077 173.55695133 129.20791966 176.67746383 122.37870407 178.90242195 C117.27111681 180.12870497 112.13088428 179.97355132 106.90356445 179.95336914 C105.65195526 179.96023239 104.40034607 179.96709564 103.11080933 179.97416687 C99.70143555 179.98925976 96.29261193 179.99094884 92.88324594 179.98522449 C90.02568518 179.9821176 87.16817305 179.98824176 84.31061924 179.99426323 C77.56291337 180.00827459 70.81533421 180.006776 64.06762695 179.99536133 C57.13234545 179.98388778 50.19745101 179.99795038 43.2622205 180.0247578 C37.28396977 180.04699134 31.30583986 180.05353491 25.32755077 180.04768139 C21.76751928 180.04432828 18.20773569 180.04661587 14.64773941 180.06393242 C10.67296719 180.08242537 6.69866242 180.06813595 2.72387695 180.05102539 C0.9810141 180.06552734 0.9810141 180.06552734 -0.79705811 180.08032227 C-9.3528843 180.00354979 -17.68958342 178.57673429 -24.69067383 173.29931641 C-33.65304962 163.91016081 -34.61661862 154.30061428 -34.59033203 141.75854492 C-34.59544296 140.4941156 -34.60055389 139.22968628 -34.6058197 137.92694092 C-34.61913922 134.47854345 -34.61979635 131.03025605 -34.6172564 127.58183789 C-34.61618201 124.69432452 -34.62108193 121.806833 -34.62586182 118.91932434 C-34.63693237 112.10318182 -34.63740809 105.28709441 -34.63134766 98.47094727 C-34.6253077 91.45789347 -34.63762496 84.4450403 -34.65891773 77.43202072 C-34.67657455 71.39268999 -34.68252872 65.35342288 -34.67927998 59.3140673 C-34.67747367 55.71499953 -34.68003785 52.11607493 -34.69399452 48.51703072 C-34.70898737 44.50105021 -34.69956722 40.48547426 -34.68798828 36.46948242 C-34.69563202 35.28946152 -34.70327576 34.10944061 -34.71115112 32.8936615 C-34.65305803 23.7579912 -33.5285308 16.1766562 -27.19067383 9.23681641 C-26.4868457 8.43630859 -25.78301758 7.63580078 -25.05786133 6.81103516 C-17.36802244 0.4685612 -9.69340658 -0.03935239 0 0 Z " fill="#023366" transform="translate(120.315673828125,140.45068359375)"/>
<path d="M0 0 C115.24581904 0 115.24581904 0 136.75390625 20.58984375 C151.63296917 36.55572518 156.0433478 54.53224464 155.4765625 75.828125 C154.72806902 89.21737717 150.42524016 102.4684498 142 113 C141.3090625 113.86882812 140.618125 114.73765625 139.90625 115.6328125 C127.16289274 130.66458955 108.40399105 138.60093476 88.92706299 140.26208496 C81.36429844 140.60146704 73.81676034 140.45746201 66.25 140.3125 C58.5775 140.209375 50.905 140.10625 43 140 C43 162.11 43 184.22 43 207 C28.81 207 14.62 207 0 207 C0 138.69 0 70.38 0 0 Z " fill="#013366" transform="translate(392,116)"/>
<path d="M0 0 C0.86278564 -0.01313232 1.72557129 -0.02626465 2.61450195 -0.03979492 C20.13227107 -0.06153535 37.80952382 6.93469889 50.5625 18.9375 C54.9970269 23.55998958 57.94330183 28.22852972 60.25 34.1875 C60.76697952 35.39691757 60.76697952 35.39691757 61.29440308 36.63076782 C62.63517087 41.62110616 62.51184955 46.37213582 62.47705078 51.51708984 C62.47734283 52.64938019 62.47763489 53.78167053 62.47793579 54.94827271 C62.47654518 58.68173958 62.46099634 62.41500559 62.4453125 66.1484375 C62.44158142 68.74060965 62.4387349 71.33278321 62.43673706 73.92495728 C62.42988738 80.0446745 62.41413287 86.16430912 62.39403808 92.28399527 C62.37165078 99.25376192 62.36067855 106.22353208 62.35064721 113.19332576 C62.32976576 127.52476202 62.29310092 141.85611375 62.25 156.1875 C49.05 156.1875 35.85 156.1875 22.25 156.1875 C22.25 148.9275 22.25 141.6675 22.25 134.1875 C21.59 134.1875 20.93 134.1875 20.25 134.1875 C20.02054688 135.0640625 19.79109375 135.940625 19.5546875 136.84375 C16.11035085 145.6711517 6.88654917 152.27644436 -1.51953125 156.0390625 C-18.47714598 162.06752529 -36.71069163 162.15945136 -53.125 154.4375 C-63.27977565 148.92182504 -70.63578691 141.34631168 -74.81933594 130.38598633 C-76.35333823 125.11396009 -76.11885528 119.89401183 -76.125 114.4375 C-76.14949219 113.30828125 -76.17398438 112.1790625 -76.19921875 111.015625 C-76.23947175 99.42276159 -72.85133909 90.54530606 -64.75 82.1875 C-49.58849036 68.74833786 -29.06421448 65.3799303 -9.42578125 64.45703125 C-0.70211039 63.81735719 8.65344373 62.71643076 16.25 58.1875 C19.10940501 53.89839248 18.9657027 50.21978464 18.25 45.1875 C16.23472357 39.90639615 13.35350093 36.69895664 8.33032227 33.98144531 C4.38392698 32.47532192 0.42157905 32.65349332 -3.75 32.75 C-4.61367187 32.74291016 -5.47734375 32.73582031 -6.3671875 32.72851562 C-14.02428747 32.80415567 -20.18363269 34.62113269 -25.75 40.1875 C-26.6702026 41.71507022 -27.55061342 43.26704046 -28.3984375 44.8359375 C-28.84106934 45.64981934 -29.28370117 46.46370117 -29.73974609 47.30224609 C-30.07312988 47.92437988 -30.40651367 48.54651367 -30.75 49.1875 C-43.85267582 48.7870455 -56.79974543 48.32512215 -69.75 46.1875 C-70.28222714 35.21543283 -64.10637476 26.73753008 -57.16796875 18.66015625 C-41.33386734 2.467933 -21.43124821 0.20248508 0 0 Z " fill="#033467" transform="translate(1094.75,165.8125)"/>
<path d="M0 0 C1.09441406 0.00161133 2.18882812 0.00322266 3.31640625 0.00488281 C12.38739519 0.14110791 20.29759393 1.39831857 28.875 4.375 C29.70386719 4.65214844 30.53273438 4.92929688 31.38671875 5.21484375 C42.72711935 9.63291723 52.49262898 17.8750923 59.875 27.375 C60.50019531 28.14714844 61.12539063 28.91929687 61.76953125 29.71484375 C74.49150001 47.25951963 73.875 69.77771692 73.875 90.375 C39.225 90.375 4.575 90.375 -31.125 90.375 C-28.13977612 109.40756684 -28.13977612 109.40756684 -16.125 122.375 C-8.08592973 127.73438018 1.52831275 127.15642771 10.875 126.375 C17.16519933 125.0848741 23.4353198 123.21828749 27.875 118.375 C28.17696289 117.73151611 28.47892578 117.08803223 28.79003906 116.42504883 C29.94071113 114.03575351 31.0116098 112.2716223 32.875 110.375 C36.50348005 109.3233447 39.94430299 109.57400618 43.6875 109.8125 C44.70400635 109.84601563 45.7205127 109.87953125 46.76782227 109.9140625 C49.80733671 110.02515621 52.83901806 110.19263902 55.875 110.375 C57.56506517 110.46041055 59.25516645 110.54511137 60.9453125 110.62890625 C64.59313261 110.82488145 68.23375957 111.07905012 71.875 111.375 C72.31056368 117.36400059 71.08552628 121.08457532 68.375 126.25 C68.00971191 126.95326416 67.64442383 127.65652832 67.26806641 128.38110352 C58.8256452 144.10942499 44.42707909 152.67361926 27.74755859 157.83642578 C13.21926503 162.01496758 -4.46131588 161.97408096 -19.125 158.375 C-20.17816406 158.11847656 -21.23132813 157.86195313 -22.31640625 157.59765625 C-39.61390036 152.83931371 -53.98707314 141.82469077 -63.125 126.375 C-63.64578125 125.50875 -64.1665625 124.6425 -64.703125 123.75 C-75.73463909 103.69270165 -77.52020159 78.65052975 -72.09765625 56.58203125 C-65.47052175 34.73111791 -54.17958387 18.33427988 -34.125 7.375 C-22.95073519 1.82189398 -12.40923384 -0.01912644 0 0 Z " fill="#023366" transform="translate(642.125,165.625)"/>
<path d="M0 0 C1.82241211 -0.01836914 1.82241211 -0.01836914 3.68164062 -0.03710938 C21.75094382 -0.06649036 38.00435275 5.81695038 51.21484375 18.34765625 C58.92694834 26.49060467 63.15327734 34.96707851 62.9375 46.1875 C58.85479158 46.52878465 54.7712573 46.85902387 50.6875 47.1875 C49.54796875 47.28289062 48.4084375 47.37828125 47.234375 47.4765625 C43.80340226 47.74948079 40.37302655 47.98004601 36.9375 48.1875 C35.81593506 48.26323242 34.69437012 48.33896484 33.53881836 48.41699219 C25.6161111 48.73710157 25.6161111 48.73710157 22.41015625 46.140625 C21.94480469 45.24859375 21.47945312 44.3565625 21 43.4375 C20.46761719 42.52484375 19.93523437 41.6121875 19.38671875 40.671875 C18.90847656 39.85203125 18.43023438 39.0321875 17.9375 38.1875 C11.85708717 32.39663063 6.19061258 31.82436992 -1.875 31.8125 C-2.73931641 31.78800781 -3.60363281 31.76351562 -4.49414062 31.73828125 C-11.81487365 31.70513076 -17.03831612 33.5413391 -22.5625 38.375 C-24.69625253 42.37578599 -24.96217429 45.75171458 -24.0625 50.1875 C-19.7046608 57.10877402 -13.77101756 59.35836024 -6.0625 61.1875 C-3.79310828 61.46966238 -1.52239207 61.69135523 0.75390625 61.91015625 C3.92308316 62.3126814 6.87993876 63.27559577 9.9375 64.1875 C11.43485284 64.49246544 12.93521652 64.78283273 14.4375 65.0625 C33.51754661 68.80311704 50.95142132 73.95856161 62.9375 90.1875 C68.67780564 99.28169208 68.33073167 110.85054306 66.08984375 121.04296875 C61.5221908 135.24140181 52.17208712 144.5239218 39.1875 151.375 C30.99190218 155.2791609 22.16206493 159.04559906 12.9375 158.1875 C12.9375 158.8475 12.9375 159.5075 12.9375 160.1875 C-11.9231082 160.82275878 -35.78513167 160.91241967 -55.6875 143.6875 C-63.70859101 135.85482388 -71.93893436 125.66204365 -72.109375 113.97265625 C-72.09390625 113.05355469 -72.0784375 112.13445312 -72.0625 111.1875 C-57.72123091 110.53229743 -43.41966167 110.02247515 -29.0625 110.1875 C-28.62421875 111.26515625 -28.1859375 112.3428125 -27.734375 113.453125 C-26.53211691 116.24900857 -25.29369147 118.60013928 -23.3125 120.9375 C-22.86390625 121.48921875 -22.4153125 122.0409375 -21.953125 122.609375 C-16.09630944 127.49812187 -9.99626097 127.68242598 -2.6875 127.625 C-1.79289063 127.64498047 -0.89828125 127.66496094 0.0234375 127.68554688 C7.501625 127.68011215 13.67393283 125.96153209 19.4375 121.0625 C22.06194686 117.78194142 22.0481976 115.70749329 22 111.5625 C21.99097656 110.55960937 21.98195313 109.55671875 21.97265625 108.5234375 C21.96105469 107.75257813 21.94945312 106.98171875 21.9375 106.1875 C21.34066406 105.89746094 20.74382812 105.60742188 20.12890625 105.30859375 C17.9375 104.1875 17.9375 104.1875 14.875 102.25 C8.68482363 98.70711182 1.666427 97.40962389 -5.3125 96.3125 C-48.44138889 89.34898148 -48.44138889 89.34898148 -60.64453125 73.078125 C-64.0625 67.91821625 -64.0625 67.91821625 -64.0625 64.1875 C-64.7225 64.1875 -65.3825 64.1875 -66.0625 64.1875 C-69.74853284 50.82563096 -69.2436421 37.47698301 -62.40234375 25.2109375 C-54.40706021 13.29189058 -41.60803695 5.66819771 -27.875 1.875 C-18.60669908 0.20366705 -9.40158304 0.0050035 0 0 Z " fill="#043467" transform="translate(931.0625,165.8125)"/>
<path d="M0 0 C1.30852432 -0.01022186 2.61704865 -0.02044373 3.96522522 -0.03097534 C7.5316153 -0.05759545 11.09757943 -0.0589307 14.66404939 -0.05384874 C17.65325388 -0.05169787 20.64237419 -0.06150532 23.6315605 -0.07105958 C30.69096211 -0.09319564 37.75015085 -0.09415618 44.80957031 -0.08203125 C52.06422589 -0.06996146 59.31810473 -0.09455969 66.57262784 -0.13717139 C72.82607353 -0.17253658 79.07927348 -0.18438518 85.33281535 -0.1778959 C89.05676118 -0.17429011 92.78015313 -0.1793392 96.50400734 -0.20732498 C100.66333105 -0.23741773 104.82110015 -0.21842816 108.98046875 -0.1953125 C110.19488647 -0.21059998 111.4093042 -0.22588745 112.66052246 -0.24163818 C121.79213202 -0.13003136 129.5190535 2.2023376 136.61321735 8.1726284 C144.1089257 16.23168864 145.27187611 25.00973733 145.18603516 35.65307617 C145.19413963 37.58160934 145.19413963 37.58160934 145.20240784 39.54910278 C145.21628258 43.05123592 145.20525031 46.55287338 145.18869662 50.05497861 C145.17476753 53.73342786 145.18131499 57.41185061 145.18482971 61.09031677 C145.18752533 67.26447465 145.17411122 73.4384374 145.15087891 79.61254883 C145.12426137 86.73529399 145.12252819 93.85771334 145.13426727 100.98049122 C145.14507158 107.85388234 145.13883799 114.7271564 145.12471199 121.60053825 C145.11897632 124.51622241 145.11901567 127.43182023 145.12377739 130.34750557 C145.12946555 134.42349909 145.11016674 138.49901194 145.08837891 142.57495117 C145.09513138 144.37607109 145.09513138 144.37607109 145.10202026 146.21357727 C145.04417827 152.73716563 144.42410406 157.61256078 141.68432617 163.54931641 C140.87995117 165.34369141 140.87995117 165.34369141 140.05932617 167.17431641 C136.22683077 173.55695133 129.20791966 176.67746383 122.37870407 178.90242195 C117.27111681 180.12870497 112.13088428 179.97355132 106.90356445 179.95336914 C105.65195526 179.96023239 104.40034607 179.96709564 103.11080933 179.97416687 C99.70143555 179.98925976 96.29261193 179.99094884 92.88324594 179.98522449 C90.02568518 179.9821176 87.16817305 179.98824176 84.31061924 179.99426323 C77.56291337 180.00827459 70.81533421 180.006776 64.06762695 179.99536133 C57.13234545 179.98388778 50.19745101 179.99795038 43.2622205 180.0247578 C37.28396977 180.04699134 31.30583986 180.05353491 25.32755077 180.04768139 C21.76751928 180.04432828 18.20773569 180.04661587 14.64773941 180.06393242 C10.67296719 180.08242537 6.69866242 180.06813595 2.72387695 180.05102539 C0.9810141 180.06552734 0.9810141 180.06552734 -0.79705811 180.08032227 C-9.3528843 180.00354979 -17.68958342 178.57673429 -24.69067383 173.29931641 C-33.65304962 163.91016081 -34.61661862 154.30061428 -34.59033203 141.75854492 C-34.59544296 140.4941156 -34.60055389 139.22968628 -34.6058197 137.92694092 C-34.61913922 134.47854345 -34.61979635 131.03025605 -34.6172564 127.58183789 C-34.61618201 124.69432452 -34.62108193 121.806833 -34.62586182 118.91932434 C-34.63693237 112.10318182 -34.63740809 105.28709441 -34.63134766 98.47094727 C-34.6253077 91.45789347 -34.63762496 84.4450403 -34.65891773 77.43202072 C-34.67657455 71.39268999 -34.68252872 65.35342288 -34.67927998 59.3140673 C-34.67747367 55.71499953 -34.68003785 52.11607493 -34.69399452 48.51703072 C-34.70898737 44.50105021 -34.69956722 40.48547426 -34.68798828 36.46948242 C-34.69563202 35.28946152 -34.70327576 34.10944061 -34.71115112 32.8936615 C-34.65305803 23.7579912 -33.5285308 16.1766562 -27.19067383 9.23681641 C-26.4868457 8.43630859 -25.78301758 7.63580078 -25.05786133 6.81103516 C-17.36802244 0.4685612 -9.69340658 -0.03935239 0 0 Z M-14.02669334 19.90107822 C-14.4520569 20.77499682 -14.87742046 21.64891542 -15.31567383 22.54931641 C-15.97567383 23.53931641 -16.63567383 24.52931641 -17.31567383 25.54931641 C-17.61180275 28.0269795 -17.61180275 28.0269795 -17.55618286 30.84538269 C-17.55893219 31.94334671 -17.56168152 33.04131073 -17.56451416 34.17254639 C-17.55732361 35.37735657 -17.55013306 36.58216675 -17.54272461 37.82348633 C-17.54301666 39.09188858 -17.54330872 40.36029083 -17.54360962 41.66712952 C-17.54418406 45.14623628 -17.53241505 48.62520547 -17.5184617 52.10428023 C-17.50596954 55.73978591 -17.50478504 59.37529465 -17.50241089 63.01081848 C-17.49619166 69.89561307 -17.47977487 76.78034424 -17.45971191 83.66511089 C-17.43736667 91.50299097 -17.42636294 99.34087406 -17.41632104 107.17877805 C-17.39540901 123.30232798 -17.36022446 139.4258141 -17.31567383 155.54931641 C-16.65567383 155.54931641 -15.99567383 155.54931641 -15.31567383 155.54931641 C-15.19192383 156.47744141 -15.19192383 156.47744141 -15.06567383 157.42431641 C-14.51687735 159.66513935 -14.51687735 159.66513935 -12.60479546 160.66583538 C-9.90299221 161.70858989 -7.83509683 161.80373757 -4.93972778 161.81001282 C-3.84906006 161.81709763 -2.75839233 161.82418243 -1.63467407 161.83148193 C-0.44288544 161.82900452 0.7489032 161.8265271 1.97680664 161.82397461 C3.23571716 161.82908554 4.49462769 161.83419647 5.79168701 161.83946228 C9.24218574 161.85284811 12.69257491 161.85343134 16.14309454 161.85089898 C19.02571942 161.84982879 21.90832217 161.85471396 24.79094231 161.8595044 C31.59347383 161.87059856 38.39595014 161.87103779 45.19848633 161.86499023 C52.21038033 161.85895225 59.22207358 161.87125708 66.23393333 161.8925603 C72.25869934 161.91018987 78.28340153 161.91617546 84.30819237 161.91292256 C87.9044294 161.91111141 91.50052328 161.91372882 95.09673691 161.9276371 C99.10897551 161.94257364 103.12080703 161.93323352 107.13305664 161.92163086 C108.32079681 161.9292746 109.50853699 161.93691833 110.73226929 161.9447937 C118.68892519 161.99520867 118.68892519 161.99520867 125.68432617 158.54931641 C127.45165219 154.99247965 127.93507767 152.10697357 127.93829346 148.16027832 C127.94393311 147.09203323 127.94957275 146.02378815 127.9553833 144.923172 C127.95133484 143.76145981 127.94728638 142.59974762 127.94311523 141.40283203 C127.94661987 140.1714299 127.95012451 138.94002777 127.95373535 137.67131042 C127.96102229 134.30145692 127.95932443 130.93184946 127.95297718 127.56200981 C127.94790559 124.03161163 127.95261186 120.5012238 127.95574951 116.9708252 C127.95938578 111.04270546 127.95459897 105.1146356 127.94506836 99.18652344 C127.93418444 92.33765303 127.93771026 85.48890172 127.94872117 78.6400342 C127.95780372 72.75454328 127.95907459 66.86908817 127.95384383 60.98359251 C127.95072945 57.47071602 127.95030015 53.95789546 127.95691681 50.44502258 C127.96377866 46.5285684 127.95426166 42.6122471 127.94311523 38.69580078 C127.94918793 36.9532325 127.94918793 36.9532325 127.9553833 35.17546082 C127.94692383 33.57309319 127.94692383 33.57309319 127.93829346 31.93835449 C127.93753941 31.01291588 127.93678535 30.08747726 127.93600845 29.13399506 C127.54913459 25.16095171 126.34315113 22.37009733 123.85488892 19.27015686 C118.76232267 16.50613838 113.65751924 16.98539158 107.95532227 17.01586914 C106.66218613 17.00725357 105.36904999 16.998638 104.03672791 16.98976135 C100.49754473 16.96728958 96.95880917 16.97020072 93.41958189 16.97908282 C90.46452765 16.98419625 87.50955727 16.97689772 84.55451167 16.96961075 C77.58566415 16.95262052 70.61703567 16.95617063 63.64819336 16.97290039 C56.45600529 16.98984275 49.26442322 16.9739568 42.07230127 16.94167751 C35.8963628 16.91500807 29.72061329 16.90769771 23.54462302 16.91619259 C19.85619434 16.921127 16.16813078 16.91887836 12.47974777 16.89840508 C8.37095824 16.87668843 4.26332447 16.895416 0.15454102 16.91821289 C-1.07046616 16.90652069 -2.29547333 16.89482849 -3.55760193 16.88278198 C-4.67358261 16.89543594 -5.78956329 16.9080899 -6.93936157 16.92112732 C-7.91088984 16.92171363 -8.8824181 16.92229994 -9.88338661 16.92290401 C-12.53880291 17.33170688 -12.53880291 17.33170688 -14.02669334 19.90107822 Z " fill="#F6F3F3" transform="translate(120.315673828125,140.45068359375)"/>
<path d="M0 0 C-0.37488461 6.37303832 -2.21531319 11.55185757 -4.58984375 17.45703125 C-6.08540418 21.21457505 -7.46469165 25.0002114 -8.8125 28.8125 C-9.23144531 29.99457031 -9.65039062 31.17664063 -10.08203125 32.39453125 C-10.38496094 33.25433594 -10.68789063 34.11414063 -11 35 C-11.70495605 34.97381592 -12.40991211 34.94763184 -13.13623047 34.9206543 C-16.38225312 34.81564374 -19.62791702 34.75134714 -22.875 34.6875 C-23.98359375 34.64560547 -25.0921875 34.60371094 -26.234375 34.56054688 C-34.83647416 34.43404542 -41.40892168 36.03417013 -48.01855469 41.74365234 C-55.11869839 49.17807425 -57.60538754 57.77585859 -57.54589844 67.85595703 C-57.55623611 68.7840065 -57.56657379 69.71205597 -57.57722473 70.66822815 C-57.60643318 73.69827134 -57.60814724 76.72764019 -57.609375 79.7578125 C-57.62437148 81.87345639 -57.64110169 83.98908864 -57.65948486 86.10470581 C-57.7030056 91.64482184 -57.7231236 97.18477996 -57.73822021 102.72503662 C-57.76130346 109.38748339 -57.81371548 116.04975738 -57.86116028 122.71206665 C-57.9297999 132.80808932 -57.9613905 142.90361681 -58 153 C-72.19 153 -86.38 153 -101 153 C-101 101.85 -101 50.7 -101 -2 C-87.14 -2 -73.28 -2 -59 -2 C-58.67 6.91 -58.34 15.82 -58 25 C-55.525 19.555 -55.525 19.555 -53 14 C-48.49692202 5.79796511 -41.23861004 -0.55422131 -32.28515625 -3.375 C-21.22807279 -5.47860684 -10.19926092 -5.03223446 0 0 Z " fill="#043467" transform="translate(845,170)"/>
<path d="M0 0 C5.960625 -0.103125 11.92125 -0.20625 18.0625 -0.3125 C20.83346069 -0.38078003 20.83346069 -0.38078003 23.66040039 -0.45043945 C36.8937965 -0.64161183 48.86707195 0.70270179 59 10 C66.28669659 19.68445572 67.86795408 29.06563134 67 41 C65.36289455 49.59480361 60.7884719 57.23889547 53.94921875 62.68359375 C45.42545146 68.44012597 36.5741407 69.16931306 26.5625 69.09765625 C25.88251953 69.09664917 25.20253906 69.09564209 24.50195312 69.09460449 C22.00128452 69.08943667 19.50064027 69.07547632 17 69.0625 C11.39 69.041875 5.78 69.02125 0 69 C0 46.23 0 23.46 0 0 Z " fill="#FAFBFC" transform="translate(435,152)"/>
<path d="M0 0 C0.33 0 0.66 0 1 0 C2.07484736 25.20765098 2.07484736 25.20765098 -5.984375 34.21875 C-13.41552965 41.49179498 -20.7683323 44.34513839 -31.125 44.5 C-38.14077823 44.41057525 -43.46839962 43.49592765 -48.546875 38.46875 C-53.21251373 33.12161348 -53.46009127 29.22001718 -53.4140625 22.27734375 C-52.6577783 16.29128293 -49.27921404 13.77272203 -44.75 10.25 C-35.07381467 5.85173394 -24.74168198 4.81069729 -14.31835938 3.33642578 C-6.65990876 2.85631421 -6.65990876 2.85631421 0 0 Z " fill="#FAFBFB" transform="translate(1113,252)"/>
<path d="M0 0 C7.01690339 5.38506539 13.08809026 12.3394524 15.6875 20.9375 C15.6875 23.5775 15.6875 26.2175 15.6875 28.9375 C-5.7625 28.9375 -27.2125 28.9375 -49.3125 28.9375 C-49.3125 19.58641786 -47.37092185 13.6191252 -41.2265625 6.53125 C-39.0224641 4.45862414 -36.78814282 2.67420727 -34.3125 0.9375 C-33.36697266 0.256875 -33.36697266 0.256875 -32.40234375 -0.4375 C-23.40909353 -5.58671683 -8.72795864 -5.31579374 0 0 Z " fill="#F5F6F8" transform="translate(660.3125,201.0625)"/>
<path d="M0 0 C0.68680847 -0.00700928 1.37361694 -0.01401855 2.08123779 -0.02124023 C4.34030168 -0.03877522 6.59810223 -0.02721625 8.85717773 -0.01367188 C10.43228902 -0.01636781 12.00739867 -0.02025108 13.58250427 -0.02526855 C16.87856948 -0.03115719 20.17420024 -0.02262044 23.47021484 -0.00390625 C27.69284604 0.01890227 31.91446131 0.00574506 36.1370554 -0.01819611 C39.38762559 -0.03265559 42.63795517 -0.02804786 45.88853264 -0.01768494 C47.44544533 -0.01501901 49.00237996 -0.01828274 50.55926704 -0.02760315 C52.73541208 -0.03777404 54.9099147 -0.02226438 57.0859375 0 C58.3232814 0.00318237 59.56062531 0.00636475 60.83546448 0.00964355 C64.56873601 0.61300789 65.76651674 1.4941371 67.97827148 4.51757812 C68.61166653 9.49425346 68.0321105 12.52409634 64.97827148 16.51757812 C62.10474537 17.95434118 59.61628106 17.66875156 56.40478516 17.69458008 C55.72977463 17.70115128 55.0547641 17.70772247 54.35929871 17.7144928 C52.12161145 17.73423075 49.88399133 17.7458897 47.64624023 17.75585938 C46.49993354 17.76197267 46.49993354 17.76197267 45.33046913 17.76820946 C41.2852569 17.78907281 37.24007862 17.80337307 33.19482422 17.81274414 C29.01827698 17.82380636 24.84226287 17.85820274 20.66590405 17.89791584 C17.45309973 17.92407316 14.24042257 17.93243517 11.02752113 17.93602562 C9.4881461 17.9408943 7.94877684 17.95251643 6.40950584 17.97106361 C4.25255602 17.99543681 2.09698705 17.99449432 -0.06005859 17.98754883 C-1.89966911 17.99634819 -1.89966911 17.99634819 -3.77644348 18.00532532 C-7.63473456 17.42544693 -9.28996277 16.25310377 -12.02172852 13.51757812 C-12.68579102 11.29882812 -12.68579102 11.29882812 -12.64672852 9.01757812 C-12.65961914 8.26476562 -12.67250977 7.51195312 -12.68579102 6.73632812 C-10.87851321 0.69789404 -5.54953975 0.01426391 0 0 Z " fill="#F4EFF1" transform="translate(152.021728515625,185.482421875)"/>
<path d="M0 0 C1.7773201 -0.02409439 1.7773201 -0.02409439 3.59054565 -0.04867554 C8.99949612 -0.09310354 14.40830224 -0.13461157 19.81738281 -0.15722656 C22.67317689 -0.17057292 25.5282576 -0.19844118 28.38378906 -0.23925781 C32.4970302 -0.29804474 36.60950529 -0.31588281 40.72314453 -0.33056641 C42.0003537 -0.35323578 43.27756287 -0.37590515 44.59347534 -0.39926147 C54.4428267 -0.37569584 54.4428267 -0.37569584 57.53808594 2.59228516 C60.14783844 6.60138289 59.83797065 8.48851552 59.23095703 13.19287109 C58.070755 14.91079712 58.070755 14.91079712 56.23095703 16.19287109 C53.55680847 16.57382202 53.55680847 16.57382202 50.29418945 16.58105469 C49.07249557 16.59051117 47.8508017 16.59996765 46.59208679 16.60971069 C45.25686317 16.60433918 43.9216425 16.59818578 42.58642578 16.59130859 C41.21503037 16.5933302 39.843636 16.59624236 38.47224426 16.6000061 C35.59638241 16.6044299 32.72080006 16.59799998 29.8449707 16.58398438 C26.16965157 16.56694036 22.494992 16.57670218 18.81969738 16.59470177 C15.98597818 16.60557974 13.15241339 16.60207417 10.31868935 16.59431839 C8.30801082 16.59135877 6.29732616 16.60043105 4.28666687 16.60971069 C3.05551651 16.60025421 1.82436615 16.59079773 0.5559082 16.58105469 C-0.52314285 16.57866791 -1.60219391 16.57628113 -2.71394348 16.57382202 C-6.24168238 16.13393605 -8.69399507 14.9350998 -11.76904297 13.19287109 C-11.8503576 11.75631256 -11.90837856 10.31842279 -11.95654297 8.88037109 C-11.99134766 8.07986328 -12.02615234 7.27935547 -12.06201172 6.45458984 C-11.76904297 4.19287109 -11.76904297 4.19287109 -10.44482422 2.46240234 C-7.14492361 -0.03752236 -3.98590712 0.04909292 0 0 Z " fill="#FBF6F6" transform="translate(142.76904296875,221.80712890625)"/>
<path d="M0 0 C1.18676834 0.00233139 2.37353668 0.00466278 3.5962677 0.00706482 C6.1003032 0.01679621 8.60431687 0.03856893 11.1081543 0.0715332 C14.95329127 0.12104559 18.79715081 0.13302009 22.64257812 0.13867188 C25.07423245 0.15275348 27.50587561 0.1689563 29.9375 0.1875 C31.09267624 0.1928627 32.24785248 0.1982254 33.43803406 0.20375061 C34.50286514 0.21973801 35.56769623 0.2357254 36.66479492 0.25219727 C37.60457687 0.26283707 38.54435883 0.27347687 39.51261902 0.28443909 C41.76953125 0.55859375 41.76953125 0.55859375 43.76953125 2.55859375 C45.1044031 6.16274773 45.04081465 9.76062613 44.76953125 13.55859375 C43.00937994 16.74362945 42.27062209 17.39156347 38.76953125 18.55859375 C37.03607318 18.64644435 35.29939856 18.67624189 33.5637207 18.67211914 C31.97241081 18.67200584 31.97241081 18.67200584 30.34895325 18.67189026 C29.2051268 18.66672897 28.06130035 18.66156769 26.8828125 18.65625 C25.71066696 18.65483505 24.53852142 18.6534201 23.33085632 18.65196228 C19.58122218 18.64635763 15.8316474 18.63380431 12.08203125 18.62109375 C9.54231857 18.61607935 7.00260495 18.61151634 4.46289062 18.60742188 C-1.76824948 18.59638669 -7.99935487 18.579644 -14.23046875 18.55859375 C-18.01171875 10.05078125 -18.01171875 10.05078125 -17.23046875 5.55859375 C-12.86951106 -0.96928446 -7.31798926 -0.12439026 0 0 Z " fill="#FDF8F7" transform="translate(175.23046875,256.44140625)"/>
<path d="M0 0 C2.30644608 -0.38311005 2.30644608 -0.38311005 5.24932861 -0.39440918 C6.36248947 -0.40575897 7.47565033 -0.41710876 8.62254333 -0.42880249 C9.84957474 -0.42587189 11.07660614 -0.42294128 12.34082031 -0.41992188 C13.62869949 -0.42839142 14.91657867 -0.43686096 16.2434845 -0.44558716 C19.78296957 -0.46786018 23.32222223 -0.47073076 26.86176777 -0.46883965 C29.81637897 -0.46872014 32.77094058 -0.47727664 35.72553802 -0.48561716 C42.69873198 -0.50487434 49.67180625 -0.50772766 56.64501953 -0.50097656 C63.83536322 -0.49434302 71.02519295 -0.51716658 78.21543241 -0.55429029 C84.3887939 -0.58500573 90.5619903 -0.59634508 96.73542666 -0.59245348 C100.42233916 -0.59038678 104.10885235 -0.59585124 107.79569244 -0.62034607 C111.9113399 -0.64678385 116.02590703 -0.63287144 120.14160156 -0.61523438 C121.36053604 -0.62849762 122.57947052 -0.64176086 123.83534241 -0.65542603 C133.04551849 -0.56361586 133.04551849 -0.56361586 136.7411499 2.28845215 C140.0298965 6.23629879 140.12523065 9.26657886 140.12025452 14.3024292 C140.12231651 15.91357353 140.12231651 15.91357353 140.12442017 17.55726624 C140.12082489 18.73042892 140.11722961 19.90359161 140.11352539 21.11230469 C140.11367142 22.35159225 140.11381744 23.59087982 140.1139679 24.86772156 C140.11339076 28.26202842 140.10837671 31.6562744 140.10139394 35.05057049 C140.09514112 38.59932463 140.09455507 42.14807958 140.09336853 45.69683838 C140.09026091 52.41512198 140.08205518 59.1333893 140.07201904 65.85166574 C140.06084025 73.50094565 140.055343 81.15022634 140.05032361 88.79951239 C140.0398721 104.53301768 140.02228366 120.26650674 140 136 C139.67 136 139.34 136 139 136 C138.67 134.35 138.34 132.7 138 131 C137.67 131 137.34 131 137 131 C137 89.42 137 47.84 137 5 C130.07 4.505 130.07 4.505 123 4 C123 3.67 123 3.34 123 3 C81.75 3 40.5 3 -2 3 C-1.34 2.01 -0.68 1.02 0 0 Z " fill="#1E4776" transform="translate(108,158)"/>
<path d="M0 0 C75.24 0 150.48 0 228 0 C226.68 0.66 225.36 1.32 224 2 C223.67 2.33 223.34 2.66 223 3 C220.20443679 3.10234483 217.43343045 3.13885605 214.63726807 3.13371277 C213.74972706 3.13597833 212.86218605 3.13824388 211.94774985 3.14057809 C208.94985416 3.14694871 205.95200331 3.14608677 202.95410156 3.14526367 C200.81431011 3.14825331 198.6745192 3.15165539 196.534729 3.15544128 C190.70405706 3.16430673 184.87339978 3.1666205 179.04272175 3.16725707 C174.18183923 3.1682043 169.32096015 3.17188057 164.46007895 3.17542917 C152.99324098 3.18358389 141.52641086 3.18601253 130.05957031 3.18530273 C118.2188938 3.18470211 106.37826287 3.1952485 94.53759789 3.2110464 C84.3847152 3.22411129 74.23184741 3.22948705 64.07895637 3.22884732 C58.00955338 3.22859197 51.94019085 3.23146371 45.8707962 3.24202538 C40.1614252 3.25168834 34.45213346 3.25179791 28.7427597 3.24450874 C26.64530828 3.24346056 24.54785196 3.24583958 22.45040894 3.2518692 C19.59040083 3.25955927 16.73066846 3.25496403 13.8706665 3.24723816 C12.6211959 3.2549535 12.6211959 3.2549535 11.34648347 3.26282471 C7.10798222 3.23746824 3.86848297 2.95761631 0 1 C0 0.67 0 0.34 0 0 Z " fill="#5B7295" transform="translate(61,365)"/>
<path d="M0 0 C2.3516083 3.52741246 2.08110777 4.86350359 2 9 C2.16097168 9.82854492 2.32194336 10.65708984 2.48779297 11.51074219 C3.19879874 16.35425719 3.1425846 21.12675666 3.1328125 26.015625 C3.13376923 27.06780212 3.13472595 28.11997925 3.13571167 29.20404053 C3.13639023 31.41955628 3.1345586 33.63507404 3.13037109 35.85058594 C3.12499684 39.25199804 3.13033804 42.65327937 3.13671875 46.0546875 C3.13605833 48.20833363 3.13477792 50.36197967 3.1328125 52.515625 C3.13483673 53.53642151 3.13686096 54.55721802 3.13894653 55.60894775 C3.13579437 56.55042664 3.13264221 57.49190552 3.12939453 58.46191406 C3.12820114 59.70717865 3.12820114 59.70717865 3.12698364 60.9776001 C3 63 3 63 2 65 C1.99548522 67.40073439 2.05242816 69.76750989 2.15625 72.1640625 C2.21086115 73.68007671 2.2649561 75.19610958 2.31860352 76.7121582 C2.34850372 77.51368317 2.37840393 78.31520813 2.40921021 79.14102173 C3.07946005 97.47883227 2.83955054 115.67266881 2 134 C1.67 133.01 1.34 132.02 1 131 C0.34 131 -0.32 131 -1 131 C-1.02332869 114.06737796 -1.04097903 97.13476092 -1.05181217 80.2021265 C-1.05697519 72.34055609 -1.06401801 64.47899565 -1.07543945 56.61743164 C-1.0853861 49.76774525 -1.09185338 42.91806608 -1.09408849 36.06837267 C-1.09539563 32.43930604 -1.09848169 28.81026006 -1.10573006 25.18120003 C-1.11374356 21.13649696 -1.11399115 17.09183011 -1.11352539 13.04711914 C-1.11712067 11.83511841 -1.12071594 10.62311768 -1.12442017 9.37438965 C-1.1230455 8.27917496 -1.12167084 7.18396027 -1.12025452 6.05555725 C-1.12117631 5.09781434 -1.1220981 4.14007143 -1.12304783 3.15330601 C-1 1 -1 1 0 0 Z " fill="#2E517D" transform="translate(104,165)"/>
<path d="M0 0 C0.99 0.33 1.98 0.66 3 1 C3.04667357 18.17611168 3.08196601 35.35220364 3.10362434 52.52836418 C3.11394695 60.50314323 3.12802602 68.47788293 3.15087891 76.45263672 C3.17078273 83.40158238 3.18370927 90.35049955 3.18817699 97.29947293 C3.19078949 100.98057717 3.19695028 104.6615999 3.21146011 108.34267807 C3.22750807 112.44707643 3.22798163 116.55133211 3.22705078 120.65576172 C3.23424133 121.88286865 3.24143188 123.10997559 3.24884033 124.37426758 C3.246091 125.48768524 3.24334167 126.60110291 3.24050903 127.7482605 C3.24235262 128.7198303 3.24419621 129.69140011 3.24609566 130.69241142 C3 133 3 133 1 135 C0.28072705 137.31765729 -0.3909893 139.65095874 -1 142 C-1.66 142 -2.32 142 -3 142 C-3 142.99 -3 143.98 -3 145 C-3.66 145 -4.32 145 -5 145 C-4.71125 144.319375 -4.4225 143.63875 -4.125 142.9375 C-1.11132288 135.0684542 -0.69607784 128.41525906 -0.68115234 119.99633789 C-0.67110672 118.69809082 -0.6610611 117.39984375 -0.65071106 116.06225586 C-0.62351655 112.51940733 -0.60829315 108.97659834 -0.59528303 105.43367314 C-0.57960608 101.72473342 -0.55283051 98.01587386 -0.5272522 94.30699158 C-0.48054497 87.29135184 -0.443762 80.27569689 -0.41057932 73.25998157 C-0.37230086 65.26959514 -0.32290577 57.27928939 -0.27259517 49.28897107 C-0.1693952 32.85937207 -0.08009617 16.42972822 0 0 Z " fill="#0D3B6F" transform="translate(265,163)"/>
<path d="M0 0 C2.30644608 -0.38311005 2.30644608 -0.38311005 5.24932861 -0.39440918 C6.36248947 -0.40575897 7.47565033 -0.41710876 8.62254333 -0.42880249 C9.84957474 -0.42587189 11.07660614 -0.42294128 12.34082031 -0.41992188 C13.62869949 -0.42839142 14.91657867 -0.43686096 16.2434845 -0.44558716 C19.78296957 -0.46786018 23.32222223 -0.47073076 26.86176777 -0.46883965 C29.81637897 -0.46872014 32.77094058 -0.47727664 35.72553802 -0.48561716 C42.69873198 -0.50487434 49.67180625 -0.50772766 56.64501953 -0.50097656 C63.83536322 -0.49434302 71.02519295 -0.51716658 78.21543241 -0.55429029 C84.3887939 -0.58500573 90.5619903 -0.59634508 96.73542666 -0.59245348 C100.42233916 -0.59038678 104.10885235 -0.59585124 107.79569244 -0.62034607 C111.9113399 -0.64678385 116.02590703 -0.63287144 120.14160156 -0.61523438 C121.36053604 -0.62849762 122.57947052 -0.64176086 123.83534241 -0.65542603 C133.04034183 -0.56366747 133.04034183 -0.56366747 136.8036499 2.53845215 C137.52844543 3.35076294 138.25324097 4.16307373 139 5 C138.67 6.65 138.34 8.3 138 10 C137.67 10 137.34 10 137 10 C137 8.35 137 6.7 137 5 C130.07 4.505 130.07 4.505 123 4 C123 3.67 123 3.34 123 3 C81.75 3 40.5 3 -2 3 C-1.34 2.01 -0.68 1.02 0 0 Z " fill="#2E497C" transform="translate(108,158)"/>
<path d="M0 0 C1.7773201 -0.02409439 1.7773201 -0.02409439 3.59054565 -0.04867554 C8.99949612 -0.09310354 14.40830224 -0.13461157 19.81738281 -0.15722656 C22.67317689 -0.17057292 25.5282576 -0.19844118 28.38378906 -0.23925781 C32.4970302 -0.29804474 36.60950529 -0.31588281 40.72314453 -0.33056641 C42.0003537 -0.35323578 43.27756287 -0.37590515 44.59347534 -0.39926147 C54.4428267 -0.37569584 54.4428267 -0.37569584 57.53808594 2.59228516 C60.14783844 6.60138289 59.83797065 8.48851552 59.23095703 13.19287109 C58.07373047 14.91178894 58.07373047 14.91178894 56.23095703 16.19287109 C53.53662109 16.5670929 53.53662109 16.5670929 50.24658203 16.56518555 C49.01520508 16.57141434 47.78382813 16.57764313 46.51513672 16.58406067 C45.17040604 16.57537255 43.82567931 16.56605456 42.48095703 16.55615234 C41.10237631 16.55563365 39.72379484 16.5561517 38.34521484 16.55766296 C35.45675609 16.55757327 32.5685766 16.54714989 29.68017578 16.52905273 C25.97776571 16.5063654 22.27576368 16.50582166 18.57330322 16.51257038 C15.72685113 16.51591193 12.88049206 16.50927681 10.03405762 16.49944115 C8.66890957 16.49559205 7.30375118 16.49443973 5.93859863 16.49602699 C4.03081949 16.49639785 2.12305406 16.48229686 0.21533203 16.4675293 C-0.87038086 16.46292191 -1.95609375 16.45831451 -3.07470703 16.4535675 C-5.76904297 16.19287109 -5.76904297 16.19287109 -8.76904297 14.19287109 C-7.96946671 14.19509171 -7.16989044 14.19731232 -6.34608459 14.19960022 C1.17355343 14.21960201 8.69317863 14.23484465 16.21283627 14.24468327 C20.07915821 14.24991135 23.94545825 14.25700763 27.81176758 14.26831055 C31.53999104 14.27914209 35.26819338 14.28514849 38.99643135 14.28774834 C40.42185359 14.2896021 41.84727462 14.2932218 43.27268791 14.29860115 C45.26259111 14.30581502 47.25251537 14.30627918 49.24243164 14.30639648 C50.94453041 14.3097274 50.94453041 14.3097274 52.68101501 14.31312561 C55.16555008 14.48261532 55.16555008 14.48261532 56.23095703 13.19287109 C56.39149518 11.31965162 56.39149518 11.31965162 56.35595703 9.19287109 C56.35853516 8.47099609 56.36111328 7.74912109 56.36376953 7.00537109 C56.42790979 5.17197695 56.42790979 5.17197695 55.23095703 4.19287109 C53.20680712 4.0691194 51.17837966 4.01489799 49.15063477 3.98754883 C47.84936142 3.96760361 46.54808807 3.94765839 45.2073822 3.92710876 C43.77643963 3.9101231 42.34549579 3.89324434 40.91455078 3.87646484 C39.45865783 3.85590204 38.00277094 3.83490575 36.54689026 3.81349182 C32.70823057 3.75820148 28.86951638 3.70882307 25.03076172 3.66064453 C21.11632415 3.61048018 17.20196607 3.55476774 13.28759766 3.49951172 C5.60211802 3.39184506 -2.08342754 3.29041916 -9.76904297 3.19287109 C-7.8424463 -0.66032224 -3.83190616 0.04719615 0 0 Z " fill="#D6D5DA" transform="translate(142.76904296875,221.80712890625)"/>
<path d="M0 0 C21.45 0.33 42.9 0.66 65 1 C65 1.66 65 2.32 65 3 C64.34 3 63.68 3 63 3 C63 3.66 63 4.32 63 5 C55.22883692 5.06948809 47.45774652 5.12280502 39.68635082 5.15543652 C36.07781697 5.1710975 32.46949556 5.19234315 28.86108398 5.22631836 C25.37921878 5.25889717 21.89755799 5.27684975 18.41555214 5.28463173 C16.43957903 5.29287856 14.46368825 5.31630038 12.48783875 5.33988953 C11.28682022 5.34011612 10.0858017 5.34034271 8.84838867 5.34057617 C7.25954109 5.35056892 7.25954109 5.35056892 5.63859558 5.36076355 C3 5 3 5 1.13447571 3.60371399 C0 2 0 2 0 0 Z " fill="#4B638D" transform="translate(134,237)"/>
<path d="M0 0 C27.06021854 -0.07013349 54.12042343 -0.12300949 81.18071461 -0.15543652 C93.74575148 -0.17089426 106.31073183 -0.19196298 118.87573242 -0.22631836 C129.82953498 -0.25625406 140.78329659 -0.27558294 151.73713893 -0.28226548 C157.53515136 -0.28617065 163.33304667 -0.29532574 169.1310215 -0.31719017 C174.59336237 -0.33762114 180.05553836 -0.34382042 185.51791382 -0.33932304 C187.51771123 -0.34014529 189.51751442 -0.34607135 191.51727867 -0.35761642 C216.80147509 -0.49637169 216.80147509 -0.49637169 223.1875 5.6875 C223.785625 6.450625 224.38375 7.21375 225 8 C222.53761083 7.56028765 221.16476538 7.14065337 219.23828125 5.49609375 C216.38294756 3.58755482 214.3458173 3.53549078 210.9375 3.375 C207.65303498 3.20448389 205.13006169 3.0433539 202 2 C199.31522846 1.89435301 196.65575142 1.84516082 193.97053528 1.84178162 C192.729374 1.83437465 192.729374 1.83437465 191.46313876 1.82681805 C188.68091293 1.81141752 185.89871022 1.80307551 183.11645508 1.79467773 C181.12588802 1.78510122 179.135323 1.77509127 177.14476013 1.76467896 C171.73190032 1.73759928 166.31903175 1.7166063 160.90614152 1.69667697 C155.25265289 1.6748363 149.59919131 1.64743823 143.94572449 1.62062073 C133.23605067 1.57066786 122.52636186 1.52573866 111.81665868 1.48259836 C99.62575119 1.43324815 87.43487084 1.37832181 75.24398959 1.32291877 C50.16268504 1.2090589 25.08135446 1.10222859 0 1 C0 0.67 0 0.34 0 0 Z " fill="#154174" transform="translate(76,95)"/>
<path d="M0 0 C0.8125 1.6875 0.8125 1.6875 1 4 C-0.65063302 6.45700182 -1.50241556 7.5531526 -4 9 C-7.91354403 9.71512207 -11.77085607 9.60481669 -15.73828125 9.5234375 C-17.46862862 9.5163829 -17.46862862 9.5163829 -19.2339325 9.50918579 C-22.92739587 9.48785456 -26.61942287 9.43136815 -30.3125 9.375 C-32.75584553 9.35848325 -35.19920676 9.34413768 -37.64257812 9.33203125 C-47.63066204 9.26457104 -57.62693191 9.12954167 -67.60546875 8.6640625 C-68.8174292 8.60943848 -70.02938965 8.55481445 -71.27807617 8.49853516 C-72.17631104 8.33401855 -73.0745459 8.16950195 -74 8 C-74.66 7.01 -75.32 6.02 -76 5 C-75.10241974 5.00222061 -74.20483948 5.00444122 -73.28005981 5.00672913 C-64.83361715 5.02674123 -56.38718241 5.04197884 -47.94072151 5.05181217 C-43.5980033 5.05703746 -39.25530462 5.06412873 -34.91259766 5.07543945 C-30.72401613 5.08628085 -26.53545344 5.09227951 -22.34685898 5.09487724 C-20.74642515 5.09672922 -19.1459924 5.10034552 -17.54556656 5.10573006 C-15.30916339 5.1129571 -13.07283869 5.11399023 -10.83642578 5.11352539 C-8.92447922 5.11685631 -8.92447922 5.11685631 -6.97390747 5.12025452 C-4.07131256 5.20678562 -4.07131256 5.20678562 -2 4 C-0.86649466 1.98330173 -0.86649466 1.98330173 0 0 Z " fill="#2B4579" transform="translate(219,197)"/>
<path d="M0 0 C0.33 0.66 0.66 1.32 1 2 C-1.83118076 7.86251559 -6.06956256 10.61476552 -12 13 C-16.7717995 13.79735174 -21.43358574 13.76120239 -26.26220703 13.68115234 C-27.67253039 13.67945649 -29.08285902 13.68041655 -30.49317932 13.68380737 C-34.29252632 13.68551738 -38.09071908 13.6504323 -41.88979959 13.60836363 C-45.87087945 13.57066104 -49.85199059 13.56731599 -53.83322144 13.56021118 C-61.35903456 13.54161928 -68.88431996 13.49245989 -76.4099015 13.43211424 C-84.98305146 13.36487194 -93.55622763 13.33201576 -102.12957597 13.30194163 C-119.75334898 13.23935499 -137.37663194 13.13393125 -155 13 C-155 12.34 -155 11.68 -155 11 C-156.32 11 -157.64 11 -159 11 C-158.67 10.01 -158.34 9.02 -158 8 C-156.77794861 8.48633911 -155.55589722 8.97267822 -154.29681396 9.47375488 C-148.29123174 11.46167091 -142.52841287 11.43574268 -136.25097656 11.41992188 C-135.00257996 11.42839142 -133.75418335 11.43686096 -132.46795654 11.44558716 C-129.06672085 11.46488565 -125.66603567 11.4707407 -122.26478291 11.46883965 C-119.41237838 11.46871927 -116.56002413 11.47731106 -113.70763373 11.48561716 C-106.9694425 11.50480339 -100.23137511 11.50775316 -93.49316406 11.50097656 C-86.57375923 11.49434488 -79.65488868 11.51717545 -72.73559213 11.55429029 C-66.76749772 11.58512508 -60.79957392 11.59633235 -54.83140159 11.59245348 C-51.27906146 11.59039948 -47.72713704 11.59565268 -44.17487335 11.62034607 C-40.20524217 11.64703253 -36.23629426 11.63278079 -32.26660156 11.61523438 C-31.11188354 11.62849762 -29.95716553 11.64176086 -28.76745605 11.65542603 C-20.50306578 11.57111406 -10.50754096 10.31187522 -4.25885391 4.33443451 C-3.84343212 3.89407112 -3.42801033 3.45370773 -3 3 C-2.34 3 -1.68 3 -1 3 C-0.67 2.01 -0.34 1.02 0 0 Z " fill="#1E4074" transform="translate(259,308)"/>
<path d="M0 0 C7.65377999 -0.05057791 15.30751713 -0.08568184 22.96142578 -0.10986328 C25.56691091 -0.11994064 28.17238469 -0.1336027 30.77783203 -0.15087891 C34.51597899 -0.17505102 38.25397685 -0.1864656 41.9921875 -0.1953125 C43.16304901 -0.20563507 44.33391052 -0.21595764 45.54025269 -0.22659302 C46.62122223 -0.22674408 47.70219177 -0.22689514 48.81591797 -0.22705078 C49.77078094 -0.231492 50.72564392 -0.23593323 51.70944214 -0.24050903 C54 0 54 0 56 2 C57.33487185 5.60415398 57.2712834 9.20203238 57 13 C55.23984869 16.1850357 54.50109084 16.83296972 51 18 C49.26654193 18.0878506 47.52986731 18.11764814 45.79418945 18.11352539 C44.20287956 18.11341209 44.20287956 18.11341209 42.579422 18.11329651 C41.43559555 18.10813522 40.2917691 18.10297394 39.11328125 18.09765625 C37.94113571 18.0962413 36.76899017 18.09482635 35.56132507 18.09336853 C31.81169093 18.08776388 28.06211615 18.07521056 24.3125 18.0625 C21.77278732 18.0574856 19.2330737 18.05292259 16.69335938 18.04882812 C10.46221927 18.03779294 4.23111388 18.02105025 -2 18 C-2.33 17.01 -2.66 16.02 -3 15 C-2.30064835 15.00222061 -1.60129669 15.00444122 -0.88075256 15.00672913 C5.69704921 15.0267328 12.27484254 15.04197452 18.85266781 15.05181217 C22.23471813 15.05703975 25.6167434 15.06413511 28.9987793 15.07543945 C32.88329777 15.08834267 36.76780597 15.09322924 40.65234375 15.09765625 C42.48199928 15.10539818 42.48199928 15.10539818 44.34861755 15.11329651 C45.46970413 15.11337204 46.59079071 15.11344757 47.74584961 15.11352539 C48.73846298 15.115746 49.73107635 15.11796661 50.75376892 15.12025452 C52.97026525 15.25249942 52.97026525 15.25249942 54 14 C54.27672047 11.96853943 54.27672047 11.96853943 54.3125 9.625 C54.34988281 8.83351563 54.38726562 8.04203125 54.42578125 7.2265625 C54.20141179 4.87418684 54.20141179 4.87418684 52.28863525 3.38786316 C49.61026454 1.7636585 48.06844524 1.60692481 44.95605469 1.56762695 C43.45495148 1.53793571 43.45495148 1.53793571 41.92352295 1.50764465 C40.85047913 1.50125473 39.7774353 1.49486481 38.671875 1.48828125 C37.56773254 1.47033005 36.46359009 1.45237885 35.32598877 1.43388367 C31.80069798 1.37971773 28.27554309 1.345864 24.75 1.3125 C22.35935607 1.27933257 19.96873008 1.24484345 17.578125 1.20898438 C11.71887185 1.1239876 5.85960125 1.05566421 0 1 C0 0.67 0 0.34 0 0 Z " fill="#A8ACBE" transform="translate(163,257)"/>
<path d="M0 0 C12.13516652 -0.04637744 24.27031189 -0.08189675 36.40554905 -0.10362434 C42.04066159 -0.11405343 47.67571341 -0.12819678 53.31079102 -0.15087891 C58.75078362 -0.1726383 64.19071788 -0.18457521 69.63075066 -0.18975449 C71.70433406 -0.19344467 73.77791434 -0.20065065 75.85147285 -0.21146011 C78.75985698 -0.22601606 81.66800121 -0.22797621 84.57641602 -0.22705078 C85.43021851 -0.23424133 86.284021 -0.24143188 87.16369629 -0.24884033 C92.15917298 -0.23168444 96.26226416 0.39558143 101 2 C101 2.33 101 2.66 101 3 C67.67 2.67 34.34 2.34 0 2 C0 1.34 0 0.68 0 0 Z " fill="#436090" transform="translate(392,116)"/>
<path d="M0 0 C0.33 0 0.66 0 1 0 C1.33 32.34 1.66 64.68 2 98 C2.33 98 2.66 98 3 98 C3.04938149 102.37823917 3.0857104 106.75633146 3.10986328 111.13476562 C3.11993043 112.6247032 3.13358518 114.11462097 3.15087891 115.60449219 C3.17509653 117.74419028 3.18647564 119.88362753 3.1953125 122.0234375 C3.20578613 123.31169434 3.21625977 124.59995117 3.22705078 125.92724609 C3 129 3 129 1 131 C0.28072705 133.31765729 -0.3909893 135.65095874 -1 138 C-1.66 138 -2.32 138 -3 138 C-3 138.99 -3 139.98 -3 141 C-3.66 141 -4.32 141 -5 141 C-4.71125 140.319375 -4.4225 139.63875 -4.125 138.9375 C-1.15566989 131.18424917 -0.69631802 124.65533365 -0.68115234 116.36352539 C-0.67110672 115.1042926 -0.6610611 113.84505981 -0.65071106 112.54766846 C-0.62352402 109.11225489 -0.60829541 105.67688208 -0.59528303 102.24138951 C-0.57960276 98.64455725 -0.55282827 95.0478076 -0.5272522 91.45103455 C-0.48055079 84.64789154 -0.44376502 77.84473285 -0.41057932 71.04151195 C-0.37229672 63.29295737 -0.32290273 55.54448594 -0.27259517 47.79600155 C-0.16940387 31.86406122 -0.08010204 15.93207417 0 0 Z " fill="#234776" transform="translate(265,167)"/>
<path d="M0 0 C7.39732867 -0.02314716 14.79464955 -0.04092723 22.19200706 -0.05181217 C25.62671562 -0.05703579 29.06139943 -0.06412401 32.49609375 -0.07543945 C36.44270535 -0.08836035 40.38930684 -0.09323252 44.3359375 -0.09765625 C45.57242035 -0.10281754 46.8089032 -0.10797882 48.08285522 -0.11329651 C49.22388702 -0.11337204 50.36491882 -0.11344757 51.54052734 -0.11352539 C53.05276382 -0.11685631 53.05276382 -0.11685631 54.59555054 -0.12025452 C57 0 57 0 59 1 C59 1.66 59 2.32 59 3 C28.31 3.495 28.31 3.495 -3 4 C-2.67 3.34 -2.34 2.68 -2 2 C-1.34 2 -0.68 2 0 2 C0 1.34 0 0.68 0 0 Z " fill="#3D5A80" transform="translate(138,219)"/>
<path d="M0 0 C1.11749634 -0.00708481 2.23499268 -0.01416962 3.38635254 -0.02146912 C5.23396935 -0.01775299 5.23396935 -0.01775299 7.11891174 -0.01396179 C8.4116098 -0.01907272 9.70430786 -0.02418365 11.03617859 -0.02944946 C14.58782982 -0.04286825 18.13937483 -0.04341494 21.69104648 -0.04088616 C24.65338409 -0.03981834 27.61570004 -0.04469498 30.57803303 -0.04949158 C37.56547124 -0.06059683 44.55285569 -0.06101855 51.54029846 -0.05497742 C58.75442943 -0.0489363 65.96836542 -0.0612497 73.18246311 -0.08254749 C79.3710468 -0.10014751 85.55956835 -0.10616737 91.74817616 -0.10290974 C95.44662686 -0.10109409 99.14493852 -0.10376086 102.84336662 -0.11762428 C106.9665943 -0.13250091 111.08942369 -0.12324658 115.21266174 -0.11161804 C116.44238205 -0.11926178 117.67210236 -0.12690552 118.93908691 -0.13478088 C120.05940308 -0.12776657 121.17971924 -0.12075226 122.33398438 -0.11352539 C123.30940909 -0.11369313 124.28483381 -0.11386087 125.28981686 -0.1140337 C128.11260842 0.31936624 128.99176835 1.05258989 130.73048401 3.26069641 C129.83323608 3.09803787 128.93598816 2.93537933 128.0115509 2.76779175 C122.44159579 1.97922059 116.84727971 2.12987612 111.2334137 2.14717102 C109.98875336 2.14702499 108.74409302 2.14687897 107.4617157 2.14672852 C104.06531877 2.14730391 100.66898336 2.1523042 97.27259731 2.15930247 C93.71325298 2.16557711 90.15390773 2.16614319 86.59455872 2.16732788 C79.85869936 2.17043061 73.12285632 2.17862834 66.38700414 2.18867737 C58.72764563 2.19985688 51.06828635 2.205356 43.40892172 2.21037281 C28.29897153 2.22038655 13.18903686 2.23684749 -1.92090225 2.2579031 C-3.70377248 2.26002355 -5.4866445 2.26069641 -7.26951599 2.26069641 C-4.67136118 -0.3374584 -3.61763998 0.0076166 0 0 Z " fill="#545B86" transform="translate(113.26951599121094,157.7393035888672)"/>
<path d="M0 0 C0.33 0 0.66 0 1 0 C1.00423194 0.64107413 1.00846388 1.28214827 1.01282406 1.94264889 C1.11629532 17.56806351 1.22495708 33.19343222 1.33933926 48.81877041 C1.3945303 56.37517749 1.44798843 63.93158928 1.49731445 71.48803711 C1.54032996 78.07706969 1.58665047 84.6660695 1.63687855 91.2550512 C1.66334035 94.74127109 1.68818861 98.22748508 1.70907402 101.71374321 C1.73249669 105.61316126 1.76330064 109.5125027 1.79467773 113.41186523 C1.8004332 114.55770081 1.80618866 115.70353638 1.81211853 116.88409424 C1.86793169 122.99951101 2.20429764 128.9350717 3 135 C0.7965705 133.26367074 0.05890772 132.38787963 -0.36914349 129.56936359 C-0.36637811 128.59871558 -0.36361273 127.62806757 -0.36076355 126.62800598 C-0.36488754 125.51321365 -0.36901154 124.39842133 -0.3732605 123.24984741 C-0.36247467 122.02633575 -0.35168884 120.8028241 -0.34057617 119.54223633 C-0.34101425 118.25432693 -0.34145233 116.96641754 -0.34190369 115.63948059 C-0.34276541 112.10658783 -0.32511124 108.57399984 -0.30418181 105.04117799 C-0.28544444 101.34962647 -0.2836669 97.65806818 -0.28010559 93.96647644 C-0.27077645 86.97539693 -0.246151 79.98445793 -0.21605712 72.99344033 C-0.18254007 65.03465448 -0.1660339 57.07586196 -0.15097082 49.11702311 C-0.11960214 32.74459978 -0.06682486 16.37231781 0 0 Z " fill="#0C417A" transform="translate(84,164)"/>
<path d="M0 0 C0.66 0 1.32 0 2 0 C3.91873907 3.23804245 4.23922476 5.5990742 4.20254517 9.34039307 C4.19688034 10.42290344 4.19121552 11.50541382 4.18537903 12.62072754 C4.16883774 13.80324097 4.15229645 14.98575439 4.13525391 16.20410156 C4.12579239 17.4531427 4.11633087 18.70218384 4.10658264 19.98907471 C4.07868137 23.41037142 4.04176991 26.8313486 4.00085878 30.25249958 C3.96021525 33.82921852 3.93108043 37.40603072 3.90072632 40.98284912 C3.84151145 47.75434446 3.77194219 54.52569227 3.69865549 61.29704833 C3.61571736 69.00671683 3.54431813 76.71647866 3.47388959 84.42627001 C3.32876852 100.28431892 3.16915206 116.14218811 3 132 C2.67 132 2.34 132 2 132 C1.99576806 131.35008496 1.99153612 130.70016993 1.98717594 130.03056049 C1.88385841 114.2146086 1.77521899 98.39870356 1.66066074 82.58282948 C1.60538945 74.93438541 1.55191752 67.28593669 1.50268555 59.63745117 C1.459769 52.97081493 1.41347228 46.30421218 1.36312145 39.63762778 C1.33658063 36.10794018 1.31172922 32.57825896 1.29092598 29.04853249 C1.26763578 25.10758664 1.23679892 21.16671946 1.20532227 17.22583008 C1.1995668 16.05626266 1.19381134 14.88669525 1.18788147 13.6816864 C1.17809265 12.60621552 1.16830383 11.53074463 1.15821838 10.42268372 C1.15176583 9.49075101 1.14531328 8.5588183 1.1386652 7.59864521 C0.99887296 4.97887888 0.57955896 2.55548988 0 0 Z " fill="#E7EBE9" transform="translate(246,162)"/>
<path d="M0 0 C0 0.66 0 1.32 0 2 C-4.77278898 2.94864925 -9.39465977 3.13171421 -14.2421875 3.09765625 C-15.01055939 3.0962413 -15.77893127 3.09482635 -16.57058716 3.09336853 C-19.00543239 3.08780683 -21.44018294 3.0752616 -23.875 3.0625 C-25.53385283 3.05748004 -27.19270712 3.05291801 -28.8515625 3.04882812 C-32.9010777 3.03784998 -36.95052284 3.02061206 -41 3 C-41 5.31 -41 7.62 -41 10 C-43.29013653 6.5647952 -43.17842973 5.014669 -43 1 C-28.65873091 0.34479743 -14.35716167 -0.16502485 0 0 Z " fill="#305585" transform="translate(902,276)"/>
<path d="M0 0 C10.71600323 -0.12825004 21.312837 0.20414744 32 1 C32 3.31 32 5.62 32 8 C31.67 6.68 31.34 5.36 31 4 C30.15767822 4.26369385 30.15767822 4.26369385 29.29833984 4.53271484 C26.71098712 5.05876043 24.83180212 4.87197782 22.2265625 4.4765625 C21.3190625 4.3425 20.4115625 4.2084375 19.4765625 4.0703125 C18.53554688 3.92335938 17.59453125 3.77640625 16.625 3.625 C15.69171875 3.48578125 14.7584375 3.3465625 13.796875 3.203125 C9.19064562 2.51153815 4.59163418 1.78318844 0 1 C0 0.67 0 0.34 0 0 Z " fill="#54729C" transform="translate(682,276)"/>
<path d="M0 0 C0.57857758 0.21062576 1.15715515 0.42125153 1.75326538 0.63825989 C8.70686804 2.96971858 15.05236509 3.46876398 22.3515625 3.51171875 C24.06162979 3.53864555 24.06162979 3.53864555 25.8062439 3.56611633 C29.4124594 3.61987372 33.0185452 3.65400426 36.625 3.6875 C39.08465333 3.72070354 41.54428962 3.75519597 44.00390625 3.79101562 C50.00248774 3.8755801 56.00108675 3.94407492 62 4 C62 4.33 62 4.66 62 5 C42.86 5 23.72 5 4 5 C4 4.34 4 3.68 4 3 C2.68 3 1.36 3 0 3 C0 2.01 0 1.02 0 0 Z " fill="#1E3F74" transform="translate(100,316)"/>
<path d="M0 0 C1.10859375 0.00322266 2.2171875 0.00644531 3.359375 0.00976562 C4.50148438 0.01814453 5.64359375 0.02652344 6.8203125 0.03515625 C8.56828125 0.04192383 8.56828125 0.04192383 10.3515625 0.04882812 C13.21619895 0.06056844 16.08072883 0.07699055 18.9453125 0.09765625 C18.9453125 0.42765625 18.9453125 0.75765625 18.9453125 1.09765625 C13.0053125 1.59265625 13.0053125 1.59265625 6.9453125 2.09765625 C6.9453125 2.42765625 6.9453125 2.75765625 6.9453125 3.09765625 C6.37611084 3.11747559 5.80690918 3.13729492 5.22045898 3.15771484 C2.60749538 3.25377383 -0.00475552 3.36312032 -2.6171875 3.47265625 C-3.51244141 3.50359375 -4.40769531 3.53453125 -5.33007812 3.56640625 C-9.37305879 3.74411969 -13.08578626 3.96910352 -16.95703125 5.19921875 C-19.95716701 6.06937162 -21.21095135 6.23515071 -24.0546875 5.09765625 C-22.18168725 4.44604613 -20.306182 3.8016343 -18.4296875 3.16015625 C-17.38554688 2.80050781 -16.34140625 2.44085938 -15.265625 2.0703125 C-10.14970874 0.52060064 -5.33494722 -0.02749973 0 0 Z " fill="#486591" transform="translate(636.0546875,165.90234375)"/>
<path d="M0 0 C0.495 0.99 0.495 0.99 1 2 C0.34 2 -0.32 2 -1 2 C-1 2.66 -1 3.32 -1 4 C-1.71027344 4.13277344 -2.42054687 4.26554688 -3.15234375 4.40234375 C-4.07144531 4.57894531 -4.99054688 4.75554687 -5.9375 4.9375 C-6.85402344 5.11152344 -7.77054688 5.28554687 -8.71484375 5.46484375 C-10.95289844 5.77714988 -10.95289844 5.77714988 -12 7 C-14.14386657 7.15858842 -16.29266838 7.25129298 -18.44140625 7.31640625 C-20.39916992 7.37924805 -20.39916992 7.37924805 -22.39648438 7.44335938 C-23.7851533 7.48317608 -25.17382522 7.52288825 -26.5625 7.5625 C-27.95509183 7.60567989 -29.34767028 7.649294 -30.74023438 7.69335938 C-34.16004801 7.79985876 -37.57993763 7.90186923 -41 8 C-41 7.67 -41 7.34 -41 7 C-37.04309388 6.09088033 -33.23929625 5.80937209 -29.1875 5.625 C-19.4084093 5.0204046 -9.02539457 3.99399645 0 0 Z " fill="#41608B" transform="translate(1110,225)"/>
<path d="M0 0 C0.33 0.66 0.66 1.32 1 2 C-1.74903928 7.80769733 -6.25290695 10.48617579 -12 13 C-14.88844166 13.44972527 -17.06556603 13.32604822 -20 13 C-18.12259896 9.24519791 -12.88742638 8.65530933 -9.1015625 7.31640625 C-6.25587157 6.1086004 -5.00972339 5.22366169 -3 3 C-2.34 3 -1.68 3 -1 3 C-0.67 2.01 -0.34 1.02 0 0 Z " fill="#425B87" transform="translate(259,308)"/>
<path d="M0 0 C15.51 0 31.02 0 47 0 C47 0.33 47 0.66 47 1 C32.15 1 17.3 1 2 1 C2 1.66 2 2.32 2 3 C1.01 3 0.02 3 -1 3 C-0.67 2.01 -0.34 1.02 0 0 Z " fill="#F0EEEB" transform="translate(161,258)"/>
<path d="M0 0 C0 0.66 0 1.32 0 2 C-0.99 2 -1.98 2 -3 2 C-3.226875 2.556875 -3.45375 3.11375 -3.6875 3.6875 C-5.37550036 6.66159588 -7.46676517 8.72008865 -10 11 C-10.66 11 -11.32 11 -12 11 C-12.66 12.32 -13.32 13.64 -14 15 C-14 10.9666466 -12.39120082 9.16482462 -10 6 C-9.34 6 -8.68 6 -8 6 C-8 5.34 -8 4.68 -8 4 C-2.58823529 0 -2.58823529 0 0 0 Z " fill="#2B4F7D" transform="translate(58,97)"/>
<path d="M0 0 C-1.32 0.33 -2.64 0.66 -4 1 C-4 1.66 -4 2.32 -4 3 C-6.40059817 4.20029908 -7.89360649 4.11459743 -10.5703125 4.09765625 C-11.46621094 4.09443359 -12.36210938 4.09121094 -13.28515625 4.08789062 C-14.22230469 4.07951172 -15.15945313 4.07113281 -16.125 4.0625 C-17.06988281 4.05798828 -18.01476562 4.05347656 -18.98828125 4.04882812 C-21.32558387 4.03702357 -23.66276061 4.02055759 -26 4 C-26 3.67 -26 3.34 -26 3 C-25.10539063 2.96261719 -24.21078125 2.92523438 -23.2890625 2.88671875 C-16.44908662 2.51482241 -10.35053157 1.85499318 -3.890625 -0.4765625 C-2 -1 -2 -1 0 0 Z " fill="#687FA6" transform="translate(665,290)"/>
<path d="M0 0 C4.10403363 -0.08694042 8.20783129 -0.14037149 12.3125 -0.1875 C13.47974609 -0.21263672 14.64699219 -0.23777344 15.84960938 -0.26367188 C16.96787109 -0.27333984 18.08613281 -0.28300781 19.23828125 -0.29296875 C20.26993408 -0.3086792 21.30158691 -0.32438965 22.36450195 -0.34057617 C25 0 25 0 26.86010742 1.51831055 C27.23627197 2.00726807 27.61243652 2.49622559 28 3 C27.07058594 2.84660156 26.14117187 2.69320312 25.18359375 2.53515625 C20.16393411 1.81806202 15.12412066 1.64854502 10.0625 1.4375 C9.09248047 1.39431641 8.12246094 1.35113281 7.12304688 1.30664062 C4.74881399 1.20137907 2.37449079 1.09924293 0 1 C0 0.67 0 0.34 0 0 Z " fill="#526189" transform="translate(216,158)"/>
<path d="M0 0 C0.66 0.33 1.32 0.66 2 1 C-2.29 5.29 -6.58 9.58 -11 14 C-11 9.40845608 -8.09282279 7.18698368 -5 4 C-3.3719908 2.61973133 -1.71956118 1.26438322 0 0 Z " fill="#2A4E7D" transform="translate(1036,243)"/>
<path d="M0 0 C0.66 0 1.32 0 2 0 C0.59155282 3.21524305 -1.10344786 5.32183868 -3.625 7.75 C-4.57246094 8.67039063 -4.57246094 8.67039063 -5.5390625 9.609375 C-6.02117188 10.06828125 -6.50328125 10.5271875 -7 11 C-7.66 10.67 -8.32 10.34 -9 10 C-7.8758824 8.70756532 -6.75067408 7.41607925 -5.625 6.125 C-4.99851562 5.40570313 -4.37203125 4.68640625 -3.7265625 3.9453125 C-2.52573166 2.5923402 -1.2791655 1.2791655 0 0 Z " fill="#264C7A" transform="translate(594,182)"/>
<path d="M0 0 C0.66 0 1.32 0 2 0 C0.48446596 3.47775179 -1.5773456 5.9557984 -4.125 8.75 C-5.21167969 9.94882813 -5.21167969 9.94882813 -6.3203125 11.171875 C-6.87460938 11.77515625 -7.42890625 12.3784375 -8 13 C-8 9.03990775 -6.59219817 7.85479241 -4.125 4.8125 C-3.40570312 3.91144531 -2.68640625 3.01039063 -1.9453125 2.08203125 C-1.30335937 1.39496094 -0.66140625 0.70789063 0 0 Z " fill="#2A4E7D" transform="translate(1040,182)"/>
<path d="M0 0 C4.95 1.32 9.9 2.64 15 4 C15 4.33 15 4.66 15 5 C11.37 5 7.74 5 4 5 C4 4.34 4 3.68 4 3 C2.68 3 1.36 3 0 3 C0 2.01 0 1.02 0 0 Z " fill="#2B4B7A" transform="translate(100,316)"/>
<path d="M0 0 C0.33 0.66 0.66 1.32 1 2 C0.34 2 -0.32 2 -1 2 C-1 2.66 -1 3.32 -1 4 C-6.08086796 4.84681133 -10.84828377 5.09038099 -16 5 C-16 4.67 -16 4.34 -16 4 C-15.09636719 3.79503906 -14.19273438 3.59007812 -13.26171875 3.37890625 C-12.08222656 3.10949219 -10.90273437 2.84007812 -9.6875 2.5625 C-8.51574219 2.29566406 -7.34398437 2.02882812 -6.13671875 1.75390625 C-2.99763029 1.04686031 -2.99763029 1.04686031 0 0 Z " fill="#4C6994" transform="translate(1110,225)"/>
<path d="M0 0 C0.66 0 1.32 0 2 0 C0.55575365 3.23861303 -1.25772247 5.61969163 -3.625 8.25 C-4.25664063 8.95640625 -4.88828125 9.6628125 -5.5390625 10.390625 C-6.02117188 10.92171875 -6.50328125 11.4528125 -7 12 C-7.33 11.34 -7.66 10.68 -8 10 C-6.71580959 8.32756598 -5.42242815 6.66218553 -4.125 5 C-3.04605469 3.6078125 -3.04605469 3.6078125 -1.9453125 2.1875 C-1.30335938 1.465625 -0.66140625 0.74375 0 0 Z " fill="#274C7D" transform="translate(877,181)"/>
<path d="M0 0 C5.61 0 11.22 0 17 0 C17 0.33 17 0.66 17 1 C12.05 1 7.1 1 2 1 C2 1.66 2 2.32 2 3 C1.01 3 0.02 3 -1 3 C-0.67 2.01 -0.34 1.02 0 0 Z " fill="#DEDFDE" transform="translate(161,258)"/>
<path d="M0 0 C7.57142857 1.85714286 7.57142857 1.85714286 10 5 C4.5388601 4.64766839 4.5388601 4.64766839 2 4 C0.5 1.9375 0.5 1.9375 0 0 Z " fill="#285182" transform="translate(673,172)"/>
<path d="M0 0 C2.64 0 5.28 0 8 0 C8.33 0.66 8.66 1.32 9 2 C9.99 2.66 10.98 3.32 12 4 C7.6822542 3.49202991 3.96697886 2.80317221 0 1 C0 0.67 0 0.34 0 0 Z " fill="#425E83" transform="translate(892,319)"/>
<path d="M0 0 C0.66 0 1.32 0 2 0 C2 2.64 2 5.28 2 8 C1.01 8.33 0.02 8.66 -1 9 C-0.67 6.03 -0.34 3.06 0 0 Z " fill="#3D5E82" transform="translate(954,276)"/>
<path d="M0 0 C0.33 0 0.66 0 1 0 C1 2.31 1 4.62 1 7 C-1.64 7 -4.28 7 -7 7 C-4 5 -4 5 -1 4 C-0.26676204 1.98491642 -0.26676204 1.98491642 0 0 Z " fill="#194279" transform="translate(993,205)"/>
<path d="M0 0 C-3.6441774 2.4294516 -5.71241272 2.16179575 -10 2 C-6.80505194 -1.19494806 -4.22040044 -1.35655728 0 0 Z " fill="#365786" transform="translate(1068,170)"/>
<path d="M0 0 C0.33 0 0.66 0 1 0 C1.36923077 6.52307692 1.36923077 6.52307692 -0.5 8.9375 C-0.995 9.288125 -1.49 9.63875 -2 10 C-1.125 2.25 -1.125 2.25 0 0 Z " fill="#406490" transform="translate(1021,261)"/>
</svg>
